<?xml version="1.0" encoding="utf-8"?>
<!DOCTYPE svg
  PUBLIC '-//W3C//DTD SVG 1.0//EN'
  'http://www.w3.org/TR/2001/REC-SVG-20010904/DTD/svg10.dtd'>
<svg width="500" height="615" preserveAspectRatio="xMinYMin meet" viewBox="0 0 500 615" xmlns="http://www.w3.org/2000/svg" version="1.0" fill-rule="evenodd" xmlns:xlink="http://www.w3.org/1999/xlink">
	<title>...</title>
	<desc>...</desc>
	<clipPath id="clip">
		<rect x="0" y="0" width="500" height="615"/>
	</clipPath>
	<g id="group" transform="scale(1,-1) translate(0,-615)" style="clip-path: url(#clip)">
		<g transform="">
			<text x="0" y="590" style="font-family: KR; font-size: 22px;fill: rgb(9%,21%,29%); stroke:none;" transform="translate(0,1180) scale(1,-1)">DWB</text>
			<text x="0" y="566" style="font-family: KR; font-size: 12px;fill: rgb(9%,21%,29%); stroke:none;" transform="translate(0,1132) scale(1,-1)">고유감각으로 걷는 블라인드 기준 정책</text>
			<rect x="0" y="526" width="150" height="27" rx="6" ry="6" style="stroke: rgb(67%,75%,79%); stroke-linecap: butt; stroke-width: 1; fill: rgb(86%,94%,91%); fill-rule: evenodd;"/>
			<text x="9" y="536" style="font-family: KR; font-size: 9px;fill: rgb(9%,21%,29%); stroke:none;" transform="translate(0,1072) scale(1,-1)">초록: 학습하는 모델</text>
			<rect x="164" y="526" width="150" height="27" rx="6" ry="6" style="stroke: rgb(67%,75%,79%); stroke-linecap: butt; stroke-width: 1; fill: rgb(89%,91%,98%); fill-rule: evenodd;"/>
			<text x="173" y="536" style="font-family: KR; font-size: 9px;fill: rgb(9%,21%,29%); stroke:none;" transform="translate(0,1072) scale(1,-1)">파랑: 고정하는 모델</text>
			<text x="330" y="535" style="font-family: KR; font-size: 9px;fill: rgb(9%,21%,29%); stroke:none;" transform="translate(0,1070) scale(1,-1)">회색: 입력 / 출력</text>
			<text x="0" y="497" style="font-family: KR; font-size: 12px;fill: rgb(9%,21%,29%); stroke:none;" transform="translate(0,994) scale(1,-1)">STAGE 1  |  교사 정책 학습</text>
			<rect x="0" y="411" width="137" height="65" rx="6" ry="6" style="stroke: rgb(67%,75%,79%); stroke-linecap: butt; stroke-width: 1; fill: rgb(94%,95%,96%); fill-rule: evenodd;"/>
			<text x="9" y="459" style="font-family: KR; font-size: 9px;fill: rgb(9%,21%,29%); stroke:none;" transform="translate(0,918) scale(1,-1)">관절·자세·명령 등</text>
			<text x="9" y="444" style="font-family: KR; font-size: 9px;fill: rgb(9%,21%,29%); stroke:none;" transform="translate(0,888) scale(1,-1)">고유감각 5시점 이력</text>
			<text x="9" y="429" style="font-family: KR; font-size: 9px;fill: rgb(9%,21%,29%); stroke:none;" transform="translate(0,858) scale(1,-1)">영상 입력 없음</text>
			<rect x="165" y="411" width="185" height="65" rx="6" ry="6" style="stroke: rgb(67%,75%,79%); stroke-linecap: butt; stroke-width: 1; fill: rgb(86%,94%,91%); fill-rule: evenodd;"/>
			<text x="174" y="459" style="font-family: KR; font-size: 9px;fill: rgb(9%,21%,29%); stroke:none;" transform="translate(0,918) scale(1,-1)">DWB 교사 [학습]</text>
			<text x="174" y="444" style="font-family: KR; font-size: 9px;fill: rgb(9%,21%,29%); stroke:none;" transform="translate(0,888) scale(1,-1)">CENet + Actor MLP</text>
			<text x="174" y="429" style="font-family: KR; font-size: 9px;fill: rgb(9%,21%,29%); stroke:none;" transform="translate(0,858) scale(1,-1)">PPO + CENet 보조 학습</text>
			<rect x="378" y="411" width="122" height="65" rx="6" ry="6" style="stroke: rgb(67%,75%,79%); stroke-linecap: butt; stroke-width: 1; fill: rgb(94%,95%,96%); fill-rule: evenodd;"/>
			<text x="387" y="459" style="font-family: KR; font-size: 9px;fill: rgb(9%,21%,29%); stroke:none;" transform="translate(0,918) scale(1,-1)">출력: 행동 12</text>
			<text x="387" y="444" style="font-family: KR; font-size: 9px;fill: rgb(9%,21%,29%); stroke:none;" transform="translate(0,888) scale(1,-1)">관절 목표각 보정</text>
			<text x="387" y="429" style="font-family: KR; font-size: 9px;fill: rgb(9%,21%,29%); stroke:none;" transform="translate(0,858) scale(1,-1)">블라인드 보행</text>
			<path d="M 139,443 L 162,443 Z" style="stroke: rgb(9%,21%,29%); stroke-linecap: butt; stroke-width: 1;"/>
			<polygon points="162 443, 157 446, 157 440" style="stroke: none; stroke-linecap: butt; stroke-width: 1; fill: rgb(9%,21%,29%); fill-rule: evenodd;"/>
			<path d="M 352,443 L 375,443 Z" style="stroke: rgb(9%,21%,29%); stroke-linecap: butt; stroke-width: 1;"/>
			<polygon points="375 443, 370 446, 370 440" style="stroke: none; stroke-linecap: butt; stroke-width: 1; fill: rgb(9%,21%,29%); fill-rule: evenodd;"/>
			<text x="0" y="388" style="font-family: KR; font-size: 8.7px;fill: rgb(9%,21%,29%); stroke:none;" transform="translate(0,776) scale(1,-1)">학습 전용 Critic은 특권 관측298(지형 포함)을 사용. 배포 Actor에는 지형 없음.</text>
			<text x="0" y="341" style="font-family: KR; font-size: 12px;fill: rgb(9%,21%,29%); stroke:none;" transform="translate(0,682) scale(1,-1)">STAGE 2  |  원본 정책 그대로 배포 (학생 단계 없음)</text>
			<rect x="0" y="249" width="137" height="65" rx="6" ry="6" style="stroke: rgb(67%,75%,79%); stroke-linecap: butt; stroke-width: 1; fill: rgb(94%,95%,96%); fill-rule: evenodd;"/>
			<text x="9" y="297" style="font-family: KR; font-size: 9px;fill: rgb(9%,21%,29%); stroke:none;" transform="translate(0,594) scale(1,-1)">동일한 고유감각 이력</text>
			<text x="9" y="282" style="font-family: KR; font-size: 9px;fill: rgb(9%,21%,29%); stroke:none;" transform="translate(0,564) scale(1,-1)">카메라 필요 없음</text>
			<rect x="165" y="249" width="185" height="65" rx="6" ry="6" style="stroke: rgb(67%,75%,79%); stroke-linecap: butt; stroke-width: 1; fill: rgb(89%,91%,98%); fill-rule: evenodd;"/>
			<text x="174" y="297" style="font-family: KR; font-size: 9px;fill: rgb(9%,21%,29%); stroke:none;" transform="translate(0,594) scale(1,-1)">학습된 CENet + Actor [고정]</text>
			<text x="174" y="282" style="font-family: KR; font-size: 9px;fill: rgb(9%,21%,29%); stroke:none;" transform="translate(0,564) scale(1,-1)">정규화·가중치 유지</text>
			<rect x="378" y="249" width="122" height="65" rx="6" ry="6" style="stroke: rgb(67%,75%,79%); stroke-linecap: butt; stroke-width: 1; fill: rgb(94%,95%,96%); fill-rule: evenodd;"/>
			<text x="387" y="297" style="font-family: KR; font-size: 9px;fill: rgb(9%,21%,29%); stroke:none;" transform="translate(0,594) scale(1,-1)">행동 12</text>
			<text x="387" y="282" style="font-family: KR; font-size: 9px;fill: rgb(9%,21%,29%); stroke:none;" transform="translate(0,564) scale(1,-1)">MuJoCo / 로봇</text>
			<path d="M 139,281 L 162,281 Z" style="stroke: rgb(9%,21%,29%); stroke-linecap: butt; stroke-width: 1;"/>
			<polygon points="162 281, 157 284, 157 278" style="stroke: none; stroke-linecap: butt; stroke-width: 1; fill: rgb(9%,21%,29%); fill-rule: evenodd;"/>
			<path d="M 352,281 L 375,281 Z" style="stroke: rgb(9%,21%,29%); stroke-linecap: butt; stroke-width: 1;"/>
			<polygon points="375 281, 370 284, 370 278" style="stroke: none; stroke-linecap: butt; stroke-width: 1; fill: rgb(9%,21%,29%); fill-rule: evenodd;"/>
			<text x="0" y="215" style="font-family: KR; font-size: 10px;fill: rgb(9%,21%,29%); stroke:none;" transform="translate(0,430) scale(1,-1)">비교 기준: 이 블라인드 정책의 보행과 BAVRL의 보정 후 보행을 비교한다.</text>
			<text x="0" y="190" style="font-family: KR; font-size: 9px;fill: rgb(9%,21%,29%); stroke:none;" transform="translate(0,380) scale(1,-1)">DWB 자체에 Attention 학생이나 지형 latent 증류 단계를 붙여 설명하지 않는다.</text>
		</g>
	</g>
</svg>
